<svg xmlns="http://www.w3.org/2000/svg" fill="none" viewBox="0 0 823 93">
  <defs/>
  <path fill="#0B0B2B" d="M281.2.8h31.7c26.2 0 47.4 20.4 47.4 45.8s-21.2 45.8-47.4 45.8h-31.7V.8zm31.7 72.8c15.7 0 26.3-12.3 26.3-27s-10.6-27-26.3-27H302v53.9h10.9v.1zM557.5 55.3V.8H578v54.8c0 10.8 7 17.4 17.2 17.4s17.2-6.6 17.2-17.4V.8H633v54.5c0 22.5-15.8 37.2-37.7 37.2-22.1.1-37.8-14.7-37.8-37.2zM176.2 55.3V.8h20.5v54.8c0 10.8 7 17.4 17.2 17.4s17.2-6.6 17.2-17.4V.8h20.5v54.5c0 22.5-15.8 37.2-37.7 37.2-22 .1-37.7-14.7-37.7-37.2zM762.6.8h59.5v19h-38.9v17h32v19.6h-32v17h38.9v19h-59.5V.8zM393 .9h-25l36.7 51.3v40.2h20.5V47.1L393 .9zM663.7 92.5V.9h43.5c7.6 0 14 2.5 18.4 7.2 3.9 4.1 6 9.7 6 15.7 0 11.1-4.7 18.1-11.7 21.7 7.3 2.9 13.4 11.1 13.4 22.6 0 11.2-6.4 24.4-24.5 24.4h-45.1zm19.2-18.1h20c5.2 0 9.6-3.8 9.6-9.6s-4.6-9.8-9.6-9.8h-20v19.4zm0-37.3h19.2c4.5 0 8.7-3.8 8.7-9.1 0-5.2-4.4-9-8.7-9h-19.2v18.1zM109.5 20.4H86.2V.8h67.6v19.6h-23.6v72h-20.6v-72h-.1zM486.3 20.4h-42.5L457.5.8h73v19.6h-23.6v72h-20.6v-72zM62 49.5c-3.2-3.9-7.6-6.9-13-9.1l-11.4-4.6c-1.9-.8-3.7-1.6-5.3-2.2-1.6-.7-3-1.4-4.2-2.1-1.2-.7-2.1-1.6-2.7-2.4-.6-.9-.9-1.9-.9-3.2 0-2.4.9-4.2 2.8-5.5 1.9-1.3 4.6-2 7.9-2 3.4 0 6.6.6 9.5 1.8 3.2 1.4 6.6 3.8 8.9 5.6l.4.2 10.1-14.5S58.5 6.2 50.6 3c-5.1-2-10.3-3-15.5-3-4.7 0-9 .7-12.9 2.1-3.8 1.3-7.2 3.3-10.1 5.7a25.4 25.4 0 00-6.7 8.6C3.8 19.7 3 23.2 3 26.9c0 3.3.5 6.3 1.5 8.9 1 2.6 2.4 5 4.1 6.9 1.7 2 3.7 3.7 5.8 5.2 2.1 1.5 4.4 2.7 6.7 3.6l11.6 4.9 5.2 2.2c1.5.7 2.9 1.4 4 2.1 1.1.7 1.9 1.6 2.4 2.5.5.9.8 2 .8 3.3 0 2.5-.9 4.4-2.9 5.8-1.9 1.5-5 2.2-9 2.2-3.6 0-7.4-.9-11.1-2.5-3.6-1.6-7.6-4.2-10.9-7l-.4-.4L0 80.2l.3.3c4.4 4 9.5 7.1 15 9.1 5.8 2.1 11.7 3.2 17.5 3.2 5.3 0 10.1-.8 14.3-2.3 4.2-1.5 7.8-3.6 10.7-6.1 2.9-2.5 5.1-5.5 6.7-8.9 1.5-3.4 2.3-7 2.3-10.7 0-6.2-1.6-11.4-4.8-15.3z"/>
</svg>
